<?xml version="1.0" encoding="UTF-8" standalone="no"?>
<!-- Created with Inkscape (http://www.inkscape.org/) -->

<svg
   xmlns:dc="http://purl.org/dc/elements/1.1/"
   xmlns:cc="http://creativecommons.org/ns#"
   xmlns:rdf="http://www.w3.org/1999/02/22-rdf-syntax-ns#"
   xmlns:svg="http://www.w3.org/2000/svg"
   xmlns="http://www.w3.org/2000/svg"
   xmlns:sodipodi="http://sodipodi.sourceforge.net/DTD/sodipodi-0.dtd"
   xmlns:inkscape="http://www.inkscape.org/namespaces/inkscape"
   width="200"
   height="200"
   id="svg2"
   version="1.1"
   inkscape:version="0.48.4 r9943 custom"
   sodipodi:docname="logo.svg"
   inkscape:export-filename="/Users/growdigital/Sites/forestgarden.wales/themes/go-fgw/src/modules/components/graphics/logo/logo-thumbnail.png"
   inkscape:export-xdpi="99"
   inkscape:export-ydpi="99">
  <defs
     id="defs4" />
  <sodipodi:namedview
     id="base"
     pagecolor="#ffffff"
     bordercolor="#666666"
     borderopacity="1.0"
     inkscape:pageopacity="0.0"
     inkscape:pageshadow="2"
     inkscape:zoom="1"
     inkscape:cx="157.97742"
     inkscape:cy="68.404119"
     inkscape:document-units="px"
     inkscape:current-layer="g3992"
     showgrid="false"
     inkscape:window-width="1440"
     inkscape:window-height="855"
     inkscape:window-x="0"
     inkscape:window-y="23"
     inkscape:window-maximized="0"
     showguides="true"
     inkscape:guide-bbox="true"
     inkscape:snap-global="true"
     fit-margin-top="0"
     fit-margin-left="0"
     fit-margin-right="0"
     fit-margin-bottom="0" />
  <metadata
     id="metadata7">
    <rdf:RDF>
      <cc:Work
         rdf:about="">
        <dc:format>image/svg+xml</dc:format>
        <dc:type
           rdf:resource="http://purl.org/dc/dcmitype/StillImage" />
        <dc:title></dc:title>
      </cc:Work>
    </rdf:RDF>
  </metadata>
  <g
     inkscape:label="Layer 1"
     inkscape:groupmode="layer"
     id="layer1"
     style="display:inline"
     transform="translate(-101.4726,-106.2401)">
    <rect
       style="color:#000000;fill:none;stroke:none;stroke-width:6.19999981;marker:none;visibility:visible;display:inline;overflow:visible;enable-background:accumulate"
       id="rect4019"
       width="200"
       height="200"
       x="101.4726"
       y="106.2401" />
    <g
       id="g3992"
       transform="matrix(0.53388078,0,0,0.53388078,12.642727,31.284125)">
      <path
         sodipodi:nodetypes="ccscccccccccc"
         inkscape:connector-curvature="0"
         id="path3101"
         d="m 432.81921,483.05231 c 37.46323,-1.41455 -25.31206,2.49923 12.14305,0.0187 1.38607,-19.32873 11.33709,-33.35342 38.21736,-34.14947 21.21095,-0.62816 42.92936,12.39893 43.54144,33.96657 4.98667,-0.19015 14.27964,-0.0658 14.27964,-0.0658 l 0,18.03455 -374.61547,-10e-6 0,-18.03455 c 0,0 20.97879,0.41774 31.4388,-0.11217 21.45346,-1.39107 42.14497,1.49663 63.62228,-0.57024 17.55702,-0.47434 35.03511,0.78128 52.52107,0.81045 32.97854,-1.05473 66.13654,1.12614 99.10984,-0.77552 6.56214,0.54481 13.14503,1.60535 19.74199,0.87749 z"
         style="color:#000000;fill:#99b900;fill-opacity:1;fill-rule:nonzero;stroke:none;marker:none;visibility:visible;display:inline;overflow:visible;enable-background:accumulate" />
      <path
         sodipodi:nodetypes="ccccccsccccccccccsccsccccccccccccassccscccccccccscccscssccsscccccccccscccccscccscsccccccsccccscccccscscccccccccscccscccccccccscccc"
         id="path3903"
         d="m 266.21875,323.09375 c -2.52182,-0.0599 -5.39706,0.10889 -7.46875,0.53125 -1.55874,0.31713 -3.49072,1.58059 -4.15625,3.1875 -0.29763,0.71839 -0.22819,0.84043 -0.25,1.03125 -0.0218,0.19082 -0.0229,0.3293 -0.0312,0.5 -0.0167,0.34139 -0.03,0.74233 -0.0312,1.1875 -0.002,0.89034 0.0256,2.02363 0.0625,3.28125 0.0738,2.51524 0.19993,5.49569 0.375,7.78125 0.17711,2.26938 0.18699,16.07184 0.0625,19.125 -0.10945,2.71943 -0.10691,5.51724 0,9.65625 0.0407,1.57404 0.0798,3.01673 0.0937,4.0625 0.007,0.52289 8.7e-4,0.944 0,1.21875 -2.4e-4,0.0763 7.1e-4,0.10772 0,0.15625 -10e-4,0.016 9e-4,0.0514 0,0.0625 -2.7e-4,0.0134 2e-4,0.0561 0,0.0625 -0.005,0.0635 -0.0295,0.14405 -0.0312,0.1875 -0.006,0.1439 -0.001,0.23653 0,0.34375 0.003,0.21443 0.0181,0.44137 0.0312,0.71875 0.0262,0.55475 0.0672,1.2907 0.125,2.0625 0.1582,2.08847 0.19129,3.57409 0.0937,8.28125 -0.0327,1.60092 -0.088,3.05755 -0.125,4.125 -0.0185,0.53372 -0.0477,0.96911 -0.0625,1.25 -0.003,0.0624 0.003,0.0799 0,0.125 -0.006,0.0374 0.003,0.10599 0,0.125 -3.8e-4,0.005 2.7e-4,0.028 0,0.0312 -0.006,0.0394 -0.027,0.0919 -0.0312,0.125 -0.0188,0.14695 -0.0196,0.26728 -0.0312,0.40625 -0.0234,0.27794 -0.0705,0.63073 -0.0937,1.03125 -0.0465,0.80104 -0.0788,1.84648 -0.125,2.96875 -0.0925,2.24455 -0.18816,4.71735 -0.1875,6.09375 0,1.18379 0.0978,3.59851 0.1875,5.59375 0.0839,1.86543 0.15038,5.55478 0.15625,8.03125 -0.19304,4.51777 -0.27456,9.95909 -0.15036,13.11911 0.16411,3.61688 -0.15207,7.76322 -0.3368,11.64067 -0.2603,5.46366 -0.5999,10.22837 -1.08691,16.37354 -0.85649,10.80724 -1.27523,37.95946 -2.73873,38.42913 -1.57444,0.50528 -2.19912,0.0917 -4.06245,0.25 -1.0335,0.10645 -7.15191,0.33121 -12.8125,0.46875 -2.8303,0.0688 -5.6352,0.13284 -7.84375,0.15625 -2.20855,0.0234 -4.11367,-0.036 -4.0625,-0.0312 -0.9695,-0.0884 -2.1845,-0.0731 -4.375,-0.0937 -2.18187,-0.0206 -4.9911,-0.0361 -7.90626,-0.0312 -0.007,0 -0.0238,0 -0.0312,0 -5.81852,-1.5e-4 -16.83124,-0.0334 -24.4375,-0.125 -10.20728,-0.12211 -18.55221,-0.30936 -18.55221,-0.30936 l 0,18.72937 374.61547,0 0,-18.37764 c 0,0 -21.91816,1.12277 -36.89318,0.96467 l -8.875,-0.0937 c 1.27544,-1.12833 2.71407,-3.4528 4.21616,-5.26452 1.40119,-1.69012 3.68675,-3.89556 5.625,-5.46875 0.96623,-0.78406 2.36794,-2.03428 3.34375,-2.96875 0.87345,-0.83644 2.45972,-2.36866 3.53125,-3.375 1.10345,-1.03625 1.90995,-1.82488 2.5625,-2.75 0.65255,-0.92512 1.125,-2.20038 1.125,-3.3125 0,-2.32767 -1.18736,-4.22931 -3.25,-5.28125 -1.5247,-0.77797 -3.82854,-0.59772 -5.25,0.21875 -1.14865,0.66105 -1.56154,1.15008 -2.59375,2.09375 -1.03221,0.94367 -2.2804,2.15142 -3.65625,3.5 -2.75171,2.69716 -5.93536,5.93473 -8.375,8.59375 -1.79485,1.95615 -2.56234,2.74168 -3.34375,3.5625 -0.007,-0.88005 -0.0103,-1.79913 0.125,-2.78125 0.20503,-1.49378 0.28878,-4.09598 0.375,-7.875 0.11758,-5.11005 0.19753,-6.32232 0.5,-8.78125 0.30715,-2.49747 0.48672,-3.46994 0.125,-4.78125 -0.40257,-1.45975 -1.41853,-2.88877 -3.03125,-3.5625 -1.04983,-0.43872 -1.7971,-0.42743 -2.59375,-0.40625 -0.79665,0.0212 -1.54118,0.0767 -2.53125,0.53125 -1.30704,0.60026 -2.81005,2.35852 -3.15625,4.03125 -0.3462,1.67273 -0.25375,3.34861 -0.0937,5.96875 0.20969,3.43651 0.21369,4.42591 0,10.53125 -0.0968,2.75949 -0.0308,3.64691 0.0625,4.75 -1.43057,-1.09647 -3.06613,-2.37045 -3.78125,-3.03125 -1.32048,-1.22033 -3.09264,-2.72778 -4.53125,-3.875 -0.61848,-0.49314 -1.58839,-1.1698 -2.625,-1.875 -0.99783,-0.67882 -2.21385,-1.49014 -2.6875,-1.8125 -1.39405,-0.9483 -2.91371,-1.71639 -4.75,-1.65625 -1.83629,0.0601 -3.40552,1.02431 -4.59375,2.125 -0.87696,0.81192 -1.68945,1.73244 -2.0625,3.15625 -0.37305,1.42381 0.0754,3.04781 0.71875,4.0625 0.79687,1.25629 1.36956,1.56346 2.34375,2.34375 0.97419,0.78029 2.20934,1.65593 3.625,2.625 1.48798,1.0188 2.46237,1.82389 5,4.09375 1.16151,1.03904 2.83332,2.36544 4.125,3.25 1.02259,0.70047 2.52345,1.8103 2.96875,2.1875 0.71935,0.60953 1.82672,1.32697 1.82672,1.32697 0,0 -2.18248,-0.3474 -3.04547,-0.40625 -3.89971,0.0201 -4.8874,0.57534 -8.125,0.46875 -26.44066,-0.87048 -49.4436,-1.07378 -80.67994,-1.28931 0,0 0.13079,-1.84639 0.1875,-3.65625 0.0647,-2.09515 0.17675,-4.78882 0.25,-5.71875 0.10618,-1.34969 0.12929,-2.98095 0.0625,-4.34375 -0.10792,-2.18479 -0.0896,-7.71167 0.0384,-11.17332 0.06,-1.62241 0.18655,-4.2102 0.26708,-5.66616 0.0707,-1.26513 0.20464,-2.93488 0.25,-3.28125 0.83963,-6.3785 0.74814,-24.95933 -0.125,-31.59375 -0.0825,-0.62922 -0.16409,-1.22853 -0.25,-1.75 -0.0859,-0.52147 -0.0903,-0.69058 -0.3125,-1.40625 -0.39627,-1.27435 -1.22748,-2.54893 -2.4375,-3.34375 -1.21002,-0.79482 -2.58403,-1.06611 -3.90625,-1.0625 -1.64978,0 -5.53044,0.45446 -6.81058,2 -1.28014,1.54554 -1.44496,3.28488 -1.46875,5.0625 0.0211,1.94376 0.0448,3.72239 0.0937,5.3437 0.17662,5.71459 -0.1813,14.21516 -0.38059,18.55396 -0.13037,2.33268 -0.16256,4.6729 -0.3125,6.99995 -0.53699,8.05608 -0.62636,16.3325 -0.71311,23.35229 0.01,3.91523 -0.24195,8.22779 -0.40625,11.90625 -1.93177,-0.0941 -2.19504,-0.24677 -4.18942,-0.31245 -25.40186,0.2995 -8.32393,-0.0325 -31.32449,-0.0509 -3.30014,-0.0127 -6.23042,-0.11421 -6.875,-0.1875 -4.59073,-0.52208 -10.37945,-0.787 -17.03125,-0.8125 -14.13487,-0.0541 -23.98182,0.10946 -28.875,0.53125 -3.92008,0.33836 -3.93821,-0.14719 -4.9264,-0.17606 -1.60223,-8.55533 -1.3012,-16.46271 -1.2298,-22.33851 0.12608,-10.56535 -0.0895,-12.51128 -0.125,-15.5625 -0.11873,-10.20533 0.33984,-19.7738 0.375,-25.12495 0.0398,-5.97529 0.0964,-8.04366 0.21875,-8.96875 4.3e-4,-0.003 -4.3e-4,-0.0281 0,-0.0312 0.3071,-2.30055 0.30065,-6.92703 0.21875,-13.40625 -3.8e-4,-0.0302 3.8e-4,-0.0322 0,-0.0625 7e-4,-0.55716 0.0431,-2.75474 0.0937,-4.8125 0.16614,-6.81788 0.23731,-41.77934 0.0937,-48.5 -0.0718,-3.36736 -0.17853,-21.38107 -0.21875,-24.09375 -0.0401,-2.76507 -0.0254,-4.1108 -0.25,-5.4375 -0.11228,-0.66335 -0.35681,-1.47716 -0.90625,-2.1875 -0.54944,-0.71034 -1.15925,-1.05541 -1.4375,-1.21875 -0.48789,-0.28634 -1.31024,-0.54613 -1.9375,-0.625 -0.62726,-0.0789 -1.21704,-0.10299 -2.15625,-0.125 z"
         style="font-size:medium;font-style:normal;font-variant:normal;font-weight:normal;font-stretch:normal;text-indent:0;text-align:start;text-decoration:none;line-height:normal;letter-spacing:normal;word-spacing:normal;text-transform:none;direction:ltr;block-progression:tb;writing-mode:lr-tb;text-anchor:start;baseline-shift:baseline;color:#000000;fill:#75613d;fill-opacity:1;fill-rule:nonzero;stroke:none;stroke-width:6.19999980999999956;marker:none;visibility:visible;display:inline;overflow:visible;enable-background:accumulate;font-family:Sans;-inkscape-font-specification:Sans"
         inkscape:connector-curvature="0" />
      <path
         sodipodi:nodetypes="aaaaaaaaaaaaaaaaa"
         inkscape:connector-curvature="0"
         id="path3976"
         d="m 283.48889,325.48405 c -8.46479,2.26016 -17.35329,2.98859 -26.03705,2.29364 -8.48165,-0.67881 -17.27686,-2.03604 -24.87828,-6.26655 -16.90146,-9.4064 -33.38491,-22.89426 -43.14658,-40.86519 -4.14055,-7.6226 -4.46472,-17.19816 -5.26666,-26.05413 -0.66611,-7.35594 -0.86129,-14.91658 0.40693,-22.17435 1.79102,-10.24977 4.87049,-20.54224 10.01439,-29.28402 4.10939,-6.98365 9.91959,-12.76448 16.08415,-17.53572 8.20337,-6.34922 17.40233,-11.63651 27.12745,-14.22667 9.08617,-2.41998 18.71247,-1.83639 28.02018,-0.92122 7.59299,0.74657 15.27083,2.15605 22.38312,5.19978 12.88351,5.51353 25.75569,12.65291 35.74696,23.23055 7.29618,7.72438 13.21106,17.56017 16.49887,28.13938 3.79935,12.22521 4.21165,25.78019 3.05083,38.64781 -0.75159,8.3313 -2.68581,16.80755 -6.40609,24.09174 -3.6047,7.05789 -8.86501,13.25571 -14.85795,17.90136 -11.46026,8.88385 -25.149,14.19463 -38.74027,17.82359 z"
         style="color:#000000;fill:#99b900;fill-opacity:1;fill-rule:nonzero;stroke:none;marker:none;visibility:visible;display:inline;overflow:visible;enable-background:accumulate" />
      <path
         sodipodi:nodetypes="sssssscsssssssssscssssssscssssss"
         inkscape:connector-curvature="0"
         id="path3976-6"
         d="m 371.65885,332.86495 c -2.09075,0.0198 -4.1688,0.24538 -6.18726,0.81335 -4.32078,1.21578 -8.41029,3.7008 -12.05497,6.68106 -2.73885,2.23957 -5.32009,4.94257 -7.14584,8.22062 -2.28539,4.1033 -3.64862,8.92864 -4.44436,13.73977 -0.56345,3.40671 -0.47024,6.97546 -0.17429,10.42827 0.10529,1.22833 0.20209,2.46321 0.31953,3.71816 -0.86641,0.1174 -1.70774,0.29677 -2.55623,0.52287 -4.24272,1.13057 -8.27281,3.44496 -11.85163,6.21629 -2.68937,2.08258 -5.20785,4.5914 -7.0006,7.63966 -2.24411,3.81566 -3.60491,8.3073 -4.38627,12.78117 -0.55327,3.16791 -0.46488,6.46226 -0.17428,9.67303 0.34984,3.8655 0.48844,8.05973 2.29479,11.38686 4.25866,7.84405 11.44971,13.72978 18.82318,17.83555 3.31621,1.84655 7.16379,2.43424 10.86401,2.73052 3.7884,0.30335 7.66493,-9.3e-4 11.35781,-0.98764 5.92936,-1.58398 10.63736,-6.9263 16.906,-7.78489 1.9198,-0.26295 5.90246,3.5489 7.95919,4.73484 3.31621,1.84656 7.16378,2.43425 10.86399,2.73053 3.78841,0.30334 7.66494,-9.4e-4 11.35783,-0.98764 5.92936,-1.58398 11.87727,-3.90723 16.87695,-7.78489 2.61449,-2.02777 4.93419,-4.73328 6.50678,-7.81395 1.62302,-3.17943 2.46074,-6.87893 2.78862,-10.51542 0.50642,-5.61653 0.32131,-11.54083 -1.33621,-16.87696 -1.43435,-4.61768 -4.02089,-8.91577 -7.20394,-12.28736 -3.36653,-3.56593 -7.47527,-6.22592 -11.76449,-8.36586 0.0542,-0.46065 0.10598,-0.90547 0.14525,-1.36525 0.51574,-6.03995 0.32275,-12.4167 -1.36526,-18.15508 -1.46074,-4.96578 -4.0785,-9.59115 -7.32013,-13.2169 -4.43902,-4.96503 -10.16532,-8.30505 -15.88933,-10.89304 -3.15992,-1.42869 -6.56094,-2.08962 -9.93445,-2.44004 -2.06766,-0.2148 -4.18365,-0.39744 -6.27439,-0.37763 z"
         style="color:#000000;fill:#99b900;fill-opacity:1;stroke:none;stroke-width:0.48244842999999998;marker:none;visibility:visible;display:inline;overflow:visible;enable-background:accumulate" />
    </g>
  </g>
</svg>
