<svg xmlns="http://www.w3.org/2000/svg" width="183.998" height="175.004"><g color="#000"><path style="marker:none" fill="none" overflow="visible" d="M0 0h183.998v175H0z"/><path style="marker:none" d="M138.998 175s.418-3.98.727-7.054c.74-10.319 6.053-17.806 20.403-18.231 11.324-.336 21.674 4.8 23.246 18.134.281 2.381.624 7.151.624 7.151z" fill="#f8fbf2" overflow="visible"/><path style="text-indent:0;text-align:start;line-height:normal;text-transform:none;block-progression:tb;marker:none;-inkscape-font-specification:Sans" d="M166.998 175c.68-.602 1.014-1.19 1.816-2.157.748-.902 1.968-2.08 3.003-2.92a33.53 33.53 0 0 0 1.785-1.585c.467-.446 1.314-1.264 1.886-1.802.589-.553 1.02-.974 1.368-1.468.348-.494.6-1.174.6-1.768 0-1.243-.634-2.258-1.735-2.82-.814-.415-2.044-.319-2.803.117-.613.353-.833.614-1.384 1.118a82.587 82.587 0 0 0-1.952 1.868 130.149 130.149 0 0 0-4.472 4.588c-.958 1.045-1.368 1.464-1.785 1.902-.004-.47-.005-.96.067-1.484.11-.798.154-2.187.2-4.205.063-2.728.106-3.375.267-4.688.164-1.333.26-1.852.067-2.553-.215-.779-.758-1.542-1.619-1.901-.56-.235-.959-.229-1.384-.217-.426.011-.823.04-1.352.283-.697.32-1.5 1.26-1.685 2.152-.185.894-.135 1.788-.05 3.187.112 1.835.114 2.363 0 5.623-.051 1.473-.016 1.947.034 2.535-.764-.585-1.637-1.265-2.02-1.618a47.814 47.814 0 0 0-2.418-2.069 25.98 25.98 0 0 0-1.402-1c-.532-.363-1.182-.796-1.435-.968-.744-.507-1.555-.917-2.535-.885-.98.032-1.819.547-2.453 1.135-.468.433-.902.925-1.101 1.685-.2.76.04 1.627.384 2.169.425.67.73.835 1.25 1.251.521.417 1.18.884 1.936 1.402.795.543 1.315.973 2.67 2.185.62.555 1.512 1.263 2.202 1.735a53.105 53.105 0 0 1 1.585 1.168m-48.051.009s.059-.941.089-1.907a95.84 95.84 0 0 1 .133-3.054c.057-.72.07-1.591.034-2.319-.058-1.166-.048-4.117.02-5.965.032-.866.1-2.248.143-3.025.038-.675.11-1.567.133-1.752.449-3.405.4-13.325-.066-16.867a29.818 29.818 0 0 0-.134-.934c-.046-.279-.048-.369-.167-.751-.211-.68-.655-1.36-1.301-1.785-.646-.425-1.38-.57-2.085-.567-.881 0-2.953.242-3.636 1.067-.684.825-.772 1.754-.785 2.703.012 1.038.024 1.987.05 2.853.095 3.05-.096 7.59-.203 9.906-.07 1.245-.087 2.494-.167 3.737-.286 4.3-.334 8.72-.38 12.467.005 2.09-.074 4.225-.162 6.189m-49.66.004c-.856-4.568-.86-9.164-.821-12.301.067-5.64-.048-6.68-.067-8.309-.063-5.448.182-10.556.2-13.413.022-3.19.052-4.295.117-4.788v-.017c.164-1.228.16-3.698.117-7.157v-.034c0-.297.023-1.47.05-2.57.089-3.64.127-22.304.05-25.892-.038-1.798-.095-11.415-.117-12.864-.021-1.476-.013-2.194-.133-2.903-.06-.354-.19-.788-.484-1.167-.293-.38-.619-.564-.767-.651-.26-.153-.7-.292-1.035-.334-.335-.042-.65-.055-1.151-.066-1.346-.032-2.881.058-3.987.283-.832.17-1.864.844-2.22 1.702-.158.383-.121.449-.133.55-.011.102-.012.176-.016.267-.01.183-.016.397-.017.634-.001.476.014 1.08.033 1.752.04 1.343.107 2.934.2 4.154.095 1.212.1 8.58.034 10.211-.059 1.452-.057 2.946 0 5.155.022.84.043 1.61.05 2.17.004.278 0 .503 0 .65v.15c-.003.034-.016.077-.017.1-.003.077 0 .126 0 .184.002.114.01.235.017.383.014.296.036.69.067 1.101.084 1.115.102 1.909.05 4.422-.018.854-.047 1.632-.067 2.202-.01.285-.025.517-.033.667-.002.034.001.043 0 .067-.004.02.001.057 0 .067v.016c-.004.021-.015.05-.017.067-.01.079-.01.143-.017.217-.012.148-.037.337-.05.55-.025.428-.042.986-.066 1.586-.05 1.198-.1 2.518-.1 3.253 0 .632.052 1.921.1 2.986.044.996.08 2.966.083 4.288-.103 2.412-.147 5.317-.08 7.004.087 1.931-.082 4.145-.18 6.215-.14 2.917-.32 5.46-.58 8.741-.458 5.77-.572 20.417-1.353 20.668" font-weight="400" fill="#718754" overflow="visible" font-family="Sans"/><path d="M53.517 83.814c-4.519 1.206-9.264 1.595-13.9 1.224-4.529-.362-9.224-1.087-13.282-3.345C17.31 76.67 8.51 69.47 3.299 59.876 1.09 55.806.916 50.694.488 45.966c-.356-3.927-.46-7.964.217-11.839.956-5.472 2.6-10.967 5.346-15.634 2.194-3.728 5.296-6.815 8.587-9.362 4.38-3.39 9.291-6.212 14.483-7.595 4.851-1.292 9.99-.98 14.96-.492 4.053.398 8.153 1.151 11.95 2.776 6.878 2.944 13.75 6.755 19.084 12.402 3.896 4.124 7.053 9.375 8.809 15.023 2.028 6.527 2.248 13.764 1.628 20.634-.4 4.448-1.433 8.973-3.42 12.862-1.924 3.768-4.732 7.077-7.932 9.557-6.118 4.743-13.427 7.578-20.683 9.516zm47.073 3.94c-1.117.01-2.226.131-3.304.434-2.306.65-4.49 1.976-6.436 3.567-1.462 1.196-2.84 2.64-3.815 4.39-1.22 2.19-1.948 4.766-2.372 7.335-.301 1.818-.251 3.724-.093 5.567.056.656.107 1.315.17 1.985a11.05 11.05 0 0 0-1.365.28c-2.265.603-4.416 1.838-6.327 3.318-1.436 1.112-2.78 2.451-3.737 4.079-1.198 2.037-1.925 4.435-2.342 6.823-.296 1.692-.248 3.45-.093 5.165.187 2.063.26 4.302 1.225 6.079 2.274 4.188 6.113 7.33 10.05 9.522 1.77.986 3.824 1.3 5.8 1.458 2.022.162 4.092 0 6.063-.528 3.166-.845 5.68-3.698 9.026-4.156 1.025-.14 3.151 1.895 4.25 2.528 1.77.986 3.824 1.3 5.8 1.458 2.022.162 4.091 0 6.063-.528 3.166-.845 6.341-2.086 9.01-4.156a12.626 12.626 0 0 0 3.474-4.171c.867-1.698 1.314-3.673 1.489-5.614.27-2.999.171-6.162-.714-9.01a17.093 17.093 0 0 0-3.846-6.56c-1.797-1.905-3.99-3.325-6.28-4.467.029-.246.056-.484.077-.729.275-3.225.172-6.629-.729-9.693-.78-2.65-2.177-5.12-3.908-7.056-2.37-2.65-5.427-4.434-8.483-5.815-1.687-.763-3.503-1.116-5.304-1.303-1.104-.115-2.233-.212-3.35-.202z" style="marker:none" fill="#f8fbf2" overflow="visible"/></g></svg>