<svg xmlns="http://www.w3.org/2000/svg" width="200" height="200"><g color="#000"><path style="marker:none" fill="none" overflow="visible" d="M0 0h200v200H0z"/><path d="M142.244 182.936c20-.755-13.514 1.335 6.483.01.74-10.319 6.053-17.806 20.403-18.231 11.325-.336 22.92 6.62 23.246 18.134 2.663-.102 7.624-.035 7.624-.035v9.628H0v-9.628s11.2.223 16.785-.06c11.453-.743 22.5.799 33.966-.305 9.374-.253 18.705.417 28.04.433 17.607-.563 35.31.601 52.913-.414 3.504.29 7.018.857 10.54.468z" style="marker:none" fill="#99b900" overflow="visible"/><path d="M53.3 97.538c-1.347-.032-2.882.058-3.988.283-.832.17-1.864.844-2.22 1.702-.158.383-.121.449-.133.55-.011.102-.012.176-.016.267-.01.183-.016.397-.017.634-.001.476.014 1.08.033 1.752.04 1.343.107 2.934.2 4.154.095 1.212.1 8.58.034 10.211-.058 1.452-.057 2.946 0 5.155.022.84.043 1.61.05 2.17.004.278 0 .503 0 .65v.15c-.003.034-.016.077-.017.1-.003.077 0 .126 0 .184.002.114.01.235.017.383.014.296.036.69.067 1.101.084 1.115.102 1.909.05 4.422-.018.854-.047 1.632-.067 2.202-.01.285-.025.517-.033.667-.002.034.001.043 0 .067-.004.02.001.057 0 .067v.016c-.004.021-.015.05-.017.067-.01.079-.01.143-.017.217-.012.148-.037.337-.05.55-.024.428-.042.986-.066 1.586-.05 1.198-.1 2.518-.1 3.253 0 .632.052 1.921.1 2.986.044.996.08 2.966.083 4.288-.103 2.412-.147 5.317-.08 7.004.087 1.931-.081 4.145-.18 6.215-.139 2.917-.32 5.46-.58 8.741-.458 5.77-.681 20.266-1.463 20.517-.84.27-1.174.049-2.168.133-.552.057-3.819.177-6.84.25-1.512.037-3.01.071-4.188.084-1.18.012-2.197-.02-2.17-.017-.517-.047-1.165-.039-2.335-.05-1.165-.01-2.665-.019-4.221-.016h-.017c-3.106 0-8.985-.018-13.046-.067C4.455 190.1 0 190 0 190v10h200v-9.811s-11.702.599-19.697.515l-4.738-.05c.681-.603 1.45-1.844 2.251-2.811.748-.902 1.968-2.08 3.003-2.92a33.53 33.53 0 0 0 1.785-1.585c.467-.446 1.314-1.264 1.886-1.802.589-.553 1.02-.974 1.368-1.468.348-.494.6-1.174.6-1.768 0-1.243-.634-2.258-1.735-2.82-.814-.415-2.044-.319-2.803.117-.613.353-.833.614-1.384 1.118a82.587 82.587 0 0 0-1.952 1.868 130.149 130.149 0 0 0-4.472 4.588c-.958 1.045-1.368 1.464-1.785 1.902-.004-.47-.005-.96.067-1.484.11-.798.154-2.187.2-4.205.063-2.728.106-3.375.267-4.688.164-1.333.26-1.852.067-2.553-.215-.779-.757-1.542-1.618-1.901-.561-.235-.96-.229-1.385-.217-.426.01-.823.04-1.352.283-.697.32-1.5 1.26-1.685 2.152-.185.893-.135 1.788-.05 3.187.112 1.835.114 2.363 0 5.622-.051 1.474-.016 1.948.034 2.536-.764-.585-1.637-1.265-2.02-1.618a47.814 47.814 0 0 0-2.418-2.069 25.98 25.98 0 0 0-1.402-1c-.532-.363-1.182-.796-1.434-.968-.745-.507-1.556-.917-2.536-.885-.98.032-1.819.547-2.453 1.135-.468.433-.902.925-1.101 1.685-.2.76.04 1.627.384 2.169.425.67.73.835 1.251 1.251.52.417 1.18.884 1.935 1.402.795.543 1.315.973 2.67 2.185.62.555 1.512 1.263 2.202 1.735a29.22 29.22 0 0 1 1.585 1.168c.384.326.975.709.975.709s-1.165-.186-1.626-.217c-2.082.01-2.61.307-4.338.25-14.116-.465-26.397-.573-43.073-.688 0 0 .07-.986.1-1.952a95.84 95.84 0 0 1 .134-3.054c.056-.72.069-1.591.033-2.319-.058-1.166-.048-4.117.02-5.965.032-.866.1-2.248.143-3.025.038-.675.11-1.567.133-1.752.449-3.405.4-13.325-.066-16.867a29.818 29.818 0 0 0-.134-.934c-.046-.279-.048-.369-.167-.751-.211-.68-.655-1.36-1.3-1.785-.647-.425-1.38-.57-2.086-.567-.881 0-2.953.242-3.636 1.067-.684.825-.772 1.754-.785 2.703.012 1.038.024 1.987.05 2.853.095 3.05-.096 7.59-.203 9.906-.07 1.245-.087 2.494-.167 3.737-.286 4.3-.334 8.72-.38 12.467.005 2.09-.13 4.393-.217 6.357-1.031-.05-1.172-.132-2.237-.167-13.561.16-4.444-.018-16.723-.027-1.762-.007-3.327-.061-3.67-.1-2.452-.28-5.542-.42-9.093-.434-7.547-.03-12.804.058-15.416.283-2.093.181-2.103-.078-2.63-.094-.856-4.567-.695-8.789-.657-11.926.067-5.64-.048-6.68-.067-8.308-.063-5.449.182-10.557.2-13.414.022-3.19.052-4.294.117-4.788v-.017c.164-1.228.16-3.698.117-7.157v-.034c0-.297.023-1.47.05-2.569.089-3.64.127-22.305.05-25.893-.038-1.798-.095-11.415-.117-12.863-.021-1.477-.013-2.195-.133-2.903-.06-.354-.19-.789-.484-1.168-.293-.38-.619-.564-.767-.65-.26-.154-.7-.292-1.035-.334-.335-.043-.65-.055-1.15-.067z" style="text-indent:0;text-align:start;line-height:normal;text-transform:none;block-progression:tb;marker:none;-inkscape-font-specification:Sans" font-weight="400" fill="#75613d" overflow="visible" font-family="Sans"/><path d="M62.52 98.814c-4.52 1.206-9.265 1.595-13.901 1.224-4.528-.362-9.224-1.087-13.282-3.345-9.024-5.022-17.824-12.223-23.035-21.817-2.211-4.07-2.384-9.182-2.812-13.91-.356-3.927-.46-7.964.217-11.839.956-5.472 2.6-10.967 5.347-15.634 2.193-3.728 5.295-6.815 8.587-9.362 4.38-3.39 9.29-6.212 14.482-7.595 4.851-1.292 9.99-.98 14.96-.492 4.054.398 8.153 1.151 11.95 2.776 6.878 2.944 13.75 6.755 19.084 12.402 3.896 4.124 7.053 9.375 8.809 15.023 2.028 6.527 2.248 13.764 1.629 20.634-.402 4.448-1.434 8.973-3.42 12.862-1.925 3.768-4.733 7.077-7.933 9.557-6.118 4.743-13.426 7.578-20.683 9.516zm47.072 3.94c-1.117.01-2.226.131-3.304.434-2.306.65-4.49 1.976-6.436 3.567-1.462 1.196-2.84 2.64-3.815 4.39-1.22 2.19-1.947 4.766-2.372 7.335-.301 1.818-.251 3.724-.093 5.567.056.656.108 1.315.17 1.985-.462.063-.912.159-1.364.28-2.266.603-4.417 1.838-6.328 3.318-1.436 1.112-2.78 2.451-3.737 4.079-1.198 2.037-1.925 4.435-2.342 6.823-.295 1.692-.248 3.45-.093 5.165.187 2.063.26 4.302 1.225 6.079 2.274 4.188 6.113 7.33 10.05 9.522 1.77.986 3.824 1.3 5.8 1.458 2.022.162 4.092 0 6.063-.528 3.166-.845 5.68-3.698 9.026-4.156 1.025-.14 3.151 1.895 4.25 2.528 1.77.986 3.824 1.3 5.8 1.458 2.022.162 4.091 0 6.063-.528 3.166-.845 6.341-2.086 9.01-4.156a12.626 12.626 0 0 0 3.474-4.171c.867-1.698 1.314-3.673 1.489-5.614.27-2.999.171-6.162-.713-9.01a17.093 17.093 0 0 0-3.847-6.56c-1.797-1.905-3.99-3.325-6.28-4.467.029-.246.056-.484.077-.729.276-3.225.173-6.629-.729-9.693-.78-2.65-2.177-5.12-3.908-7.056-2.37-2.65-5.427-4.434-8.483-5.815-1.687-.763-3.503-1.116-5.304-1.303-1.103-.115-2.233-.212-3.35-.202z" style="marker:none" fill="#99b900" overflow="visible"/></g></svg>