<?xml version="1.0" encoding="UTF-8" standalone="no"?>
<!-- Created with Inkscape (http://www.inkscape.org/) -->

<svg
   xmlns:dc="http://purl.org/dc/elements/1.1/"
   xmlns:cc="http://creativecommons.org/ns#"
   xmlns:rdf="http://www.w3.org/1999/02/22-rdf-syntax-ns#"
   xmlns:svg="http://www.w3.org/2000/svg"
   xmlns="http://www.w3.org/2000/svg"
   xmlns:sodipodi="http://sodipodi.sourceforge.net/DTD/sodipodi-0.dtd"
   xmlns:inkscape="http://www.inkscape.org/namespaces/inkscape"
   width="268.82852"
   height="457.12354"
   id="svg2"
   version="1.1"
   inkscape:version="0.48.4 r9943 custom"
   sodipodi:docname="forestgardenwales-logo.svg">
  <defs
     id="defs4">
    <marker
       inkscape:stockid="DotL"
       orient="auto"
       refY="0"
       refX="0"
       id="DotL"
       style="overflow:visible">
      <path
         id="path4536"
         d="m -2.5,-1 c 0,2.76 -2.24,5 -5,5 -2.76,0 -5,-2.24 -5,-5 0,-2.76 2.24,-5 5,-5 2.76,0 5,2.24 5,5 z"
         style="fill-rule:evenodd;stroke:#000000;stroke-width:1pt"
         transform="matrix(0.8,0,0,0.8,5.92,0.8)"
         inkscape:connector-curvature="0" />
    </marker>
    <marker
       inkscape:stockid="DotL"
       orient="auto"
       refY="0"
       refX="0"
       id="DotL-0"
       style="overflow:visible">
      <path
         inkscape:connector-curvature="0"
         id="path4536-8"
         d="m -2.5,-1 c 0,2.76 -2.24,5 -5,5 -2.76,0 -5,-2.24 -5,-5 0,-2.76 2.24,-5 5,-5 2.76,0 5,2.24 5,5 z"
         style="fill-rule:evenodd;stroke:#000000;stroke-width:1pt"
         transform="matrix(0.8,0,0,0.8,5.92,0.8)" />
    </marker>
  </defs>
  <sodipodi:namedview
     id="base"
     pagecolor="#ffffff"
     bordercolor="#666666"
     borderopacity="1.0"
     inkscape:pageopacity="0.0"
     inkscape:pageshadow="2"
     inkscape:zoom="0.77338878"
     inkscape:cx="395.26598"
     inkscape:cy="234.20695"
     inkscape:document-units="px"
     inkscape:current-layer="g5302"
     showgrid="false"
     inkscape:window-width="1440"
     inkscape:window-height="851"
     inkscape:window-x="0"
     inkscape:window-y="285"
     inkscape:window-maximized="0"
     fit-margin-top="0"
     fit-margin-left="0"
     fit-margin-right="0"
     fit-margin-bottom="0"
     inkscape:snap-global="true" />
  <metadata
     id="metadata7">
    <rdf:RDF>
      <cc:Work
         rdf:about="">
        <dc:format>image/svg+xml</dc:format>
        <dc:type
           rdf:resource="http://purl.org/dc/dcmitype/StillImage" />
        <dc:title />
      </cc:Work>
    </rdf:RDF>
  </metadata>
  <g
     inkscape:groupmode="layer"
     id="layer4"
     inkscape:label="Layer#1"
     style="display:inline"
     transform="translate(-15.373051,-8.9719392)">
    <path
       style="fill:#78a73a;fill-opacity:1"
       d="M 112.07183,253.64373 C 41.172547,238.43777 4.3350183,164.69043 18.295532,96.489032 23.928492,28.555866 96.607635,-1.8436359 156.12639,12.416547 c 60.01499,4.796804 115.86825,48.907988 123.89788,111.081783 16.94145,58.89317 -18.85873,132.75908 -85.43401,131.94092 -27.42406,2.45538 -55.15981,0.34859 -82.51843,-1.79552 z"
       id="path3333"
       inkscape:connector-curvature="0" />
  </g>
  <g
     style="display:inline"
     transform="translate(-284.15876,-266.54842)"
     id="g5302"
     inkscape:groupmode="layer"
     inkscape:label="Layer 1 copy">
    <path
       style="font-size:medium;font-style:normal;font-variant:normal;font-weight:normal;font-stretch:normal;text-indent:0;text-align:start;text-decoration:none;line-height:normal;letter-spacing:normal;word-spacing:normal;text-transform:none;direction:ltr;block-progression:tb;writing-mode:lr-tb;text-anchor:start;baseline-shift:baseline;color:#000000;fill:#694015;fill-opacity:1;stroke:none;stroke-width:5.04044342;marker:none;visibility:visible;display:inline;overflow:visible;enable-background:accumulate;font-family:Sans;-inkscape-font-specification:Sans"
       d="m 151.09375,37.21875 a 2.5204737,2.5204737 0 0 0 -2.3125,2.5 l -2.75,82.25 L 120.375,54.8125 a 2.2820616,2.2820616 0 0 0 -2.09375,-1.5 2.2820616,2.2820616 0 0 0 -2.1875,3.125 l 29.53125,77.25 -3.4375,102.59375 -46.59375,-110.1875 a 2.50025,2.50025 0 0 0 0,-0.0625 l -1.28125,-82.75 a 2.50025,2.50025 0 0 0 -2.59375,-2.5 2.50025,2.50025 0 0 0 -2.40625,2.5625 l 1.09375,70.46875 -9.53125,-22.5 a 2.50025,2.50025 0 0 0 -0.40625,-0.96875 l -14.8125,-35.0625 a 2.50025,2.50025 0 0 0 -2.59375,-1.5625 2.50025,2.50025 0 0 0 -2,3.5 l 13.21875,31.25 -16.28125,-3 a 2.50025,2.50025 0 0 0 -0.5,-0.0625 2.50025,2.50025 0 0 0 -0.40625,4.96875 l 19.5,3.59375 30.5625,72.28125 -56.84375,-60 a 2.50025,2.50025 0 0 0 -2.03125,-0.8125 2.50025,2.50025 0 0 0 -1.59375,4.25 l 30.375,32.0625 -37.65625,-1 a 2.50025,2.50025 0 0 0 -0.25,0 2.5004394,2.5004394 0 1 0 0.09375,5 l 42.0625,1.125 a 2.5012204,2.5012204 0 0 0 0.53125,-0.0625 l 30.78125,32.46875 a 2.50025,2.50025 0 0 0 0.0625,0.0625 l 29.09375,68.78125 -7.25,215.34375 a 2.5329855,2.5329855 0 1 0 5.0625,0.1875 l 7.21875,-215.5625 a 2.50025,2.50025 0 0 0 0.0312,-0.625 l 0.40625,-12.53125 28.4375,-44.8125 77,-44.375 a 2.50025,2.50025 0 0 0 -1.125,-4.6875 2.50025,2.50025 0 0 0 -1.375,0.375 l -19.5625,11.28125 15.3125,-29.375 a 2.50025,2.50025 0 0 0 -2.28125,-3.6875 2.50025,2.50025 0 0 0 -2.125,1.375 l -19,36.34375 -41.09375,23.6875 50.84375,-80.15625 a 2.50025,2.50025 0 0 0 -2.21875,-3.875 2.50025,2.50025 0 0 0 -2.03125,1.1875 l -20.84375,32.875 6.84375,-33.03125 17.75,-15.34375 a 2.50025,2.50025 0 0 0 -1.75,-4.4375 2.50025,2.50025 0 0 0 -1.5,0.65625 L 215.6875,90.03125 220.96875,64.5 A 2.50025,2.50025 0 0 0 218.5,61.46875 2.50025,2.50025 0 0 0 216.0625,63.5 l -6.65625,32.21875 a 2.50025,2.50025 0 0 0 -0.28125,1.3125 l -9.53125,46.03125 -27.5,43.375 a 2.50025,2.50025 0 0 0 -0.875,1.40625 l -23.625,37.25 1.5625,-46.78125 L 198.1875,65 A 2.50025,2.50025 0 0 0 195.875,61.46875 2.50025,2.50025 0 0 0 193.59375,63 l -17.5,40.46875 L 174.28125,55.5 a 2.4180033,2.4180033 0 0 0 -2.53125,-2.375 2.4180033,2.4180033 0 0 0 -2.28125,2.53125 l 2.125,57.3125 a 2.4231348,2.4231348 0 0 0 0.0937,0.625 L 149.625,164.625 153.8125,39.875 a 2.5204737,2.5204737 0 0 0 -2.46875,-2.65625 2.5204737,2.5204737 0 0 0 -0.25,0 z"
       transform="translate(268.78571,257.57648)"
       id="path5304"
       inkscape:connector-curvature="0" />
  </g>
</svg>
